<?xml version="1.0" encoding="UTF-8"?> <svg xmlns="http://www.w3.org/2000/svg" width="87" height="90" viewBox="0 0 87 90" fill="none"><circle cx="44.4128" cy="41.7072" r="41.7072" fill="#272727"></circle><path d="M14.4248 7.98547L5.17423 23.4243L31.2993 23.3228L0.396484 75.4289H61.2872L52.3418 60.2948H29.8762L61.3889 7.98547H14.4248Z" fill="white"></path><path d="M86.8983 8.08704H66.8724L46.9482 41.3009L66.8724 75.4289H86.9999L66.8724 41.3009L86.8983 8.08704Z" fill="#F7AE4A"></path><path d="M2.83241 84.4345C2.37616 84.4345 1.78458 84.5897 1.05766 84.9L0.709675 83.5269C1.56032 83.1778 2.40322 83.0032 3.2384 83.0032C4.01944 83.0032 4.61103 83.17 5.01315 83.5036C5.423 83.8372 5.62793 84.4035 5.62793 85.2025V87.7276C5.62793 88.4569 5.66659 88.9068 5.74392 89.0775H3.98078C3.90345 88.9611 3.85318 88.7516 3.82998 88.4491C3.366 88.9611 2.80921 89.2171 2.15963 89.2171C1.64151 89.2171 1.21619 89.0542 0.88367 88.7284C0.55888 88.4026 0.396484 87.9448 0.396484 87.3553C0.396484 86.0287 1.25873 85.3654 2.98321 85.3654C3.27707 85.3654 3.55159 85.3809 3.80678 85.412V85.3422C3.80678 85.0163 3.72559 84.7836 3.56319 84.644C3.40853 84.5043 3.16493 84.4345 2.83241 84.4345ZM2.84401 87.8789C3.13787 87.8789 3.45879 87.747 3.80678 87.4833V86.4709C3.61345 86.4321 3.43173 86.4127 3.2616 86.4127C2.88268 86.4127 2.61202 86.4748 2.44962 86.5989C2.29496 86.723 2.21763 86.9131 2.21763 87.1691C2.21763 87.6423 2.42642 87.8789 2.84401 87.8789Z" fill="white"></path><path d="M11.0943 83.4803L10.7463 84.9C10.205 84.5586 9.69844 84.388 9.22672 84.388C8.8014 84.388 8.58874 84.5392 8.58874 84.8418C8.58874 84.9969 8.68154 85.1211 8.86713 85.2141C9.05273 85.2995 9.27699 85.3732 9.53991 85.4352C9.80284 85.4973 10.0658 85.5788 10.3287 85.6796C10.5916 85.7805 10.8159 85.955 11.0015 86.2033C11.1871 86.4515 11.2799 86.7696 11.2799 87.1574C11.2799 87.8013 11.0479 88.3056 10.5839 88.6702C10.1199 89.0348 9.49738 89.2171 8.71634 89.2171C7.92756 89.2171 7.20838 89.0542 6.5588 88.7284L6.90679 87.3553C7.57957 87.7121 8.16729 87.8905 8.66994 87.8905C8.93286 87.8905 9.13392 87.8401 9.27312 87.7393C9.41231 87.6384 9.48191 87.5065 9.48191 87.3436C9.48191 87.204 9.41618 87.0876 9.28472 86.9945C9.15326 86.9014 8.98699 86.8316 8.78593 86.7851C8.58487 86.7385 8.36835 86.6726 8.13635 86.5873C7.90436 86.5019 7.68783 86.4088 7.48677 86.308C7.28571 86.1994 7.11945 86.0326 6.98799 85.8076C6.85652 85.5826 6.79079 85.3072 6.79079 84.9814C6.79079 84.3763 7.00732 83.8953 7.44037 83.5385C7.88116 83.1816 8.46501 83.0032 9.19192 83.0032C9.8647 83.0032 10.4988 83.1622 11.0943 83.4803Z" fill="white"></path><path d="M14.1073 80.7923C14.3006 80.9707 14.3973 81.2034 14.3973 81.4905C14.3973 81.7775 14.3006 82.0141 14.1073 82.2003C13.9217 82.3787 13.6704 82.4679 13.3533 82.4679C13.0362 82.4679 12.781 82.3787 12.5877 82.2003C12.3944 82.0141 12.2977 81.7775 12.2977 81.4905C12.2977 81.2034 12.3944 80.9707 12.5877 80.7923C12.781 80.6061 13.0362 80.513 13.3533 80.513C13.6704 80.513 13.9217 80.6061 14.1073 80.7923ZM12.4137 89.0775V83.1429H14.2813V89.0775H12.4137Z" fill="white"></path><path d="M17.8531 84.4345C17.3968 84.4345 16.8052 84.5897 16.0783 84.9L15.7303 83.5269C16.581 83.1778 17.4239 83.0032 18.259 83.0032C19.0401 83.0032 19.6317 83.17 20.0338 83.5036C20.4436 83.8372 20.6486 84.4035 20.6486 85.2025V87.7276C20.6486 88.4569 20.6872 88.9068 20.7646 89.0775H19.0014C18.9241 88.9611 18.8738 88.7516 18.8506 88.4491C18.3866 88.9611 17.8299 89.2171 17.1803 89.2171C16.6622 89.2171 16.2368 89.0542 15.9043 88.7284C15.5795 88.4026 15.4171 87.9448 15.4171 87.3553C15.4171 86.0287 16.2794 85.3654 18.0039 85.3654C18.2977 85.3654 18.5722 85.3809 18.8274 85.412V85.3422C18.8274 85.0163 18.7462 84.7836 18.5838 84.644C18.4292 84.5043 18.1856 84.4345 17.8531 84.4345ZM17.8647 87.8789C18.1585 87.8789 18.4794 87.747 18.8274 87.4833V86.4709C18.6341 86.4321 18.4524 86.4127 18.2822 86.4127C17.9033 86.4127 17.6327 86.4748 17.4703 86.5989C17.3156 86.723 17.2383 86.9131 17.2383 87.1691C17.2383 87.6423 17.4471 87.8789 17.8647 87.8789Z" fill="white"></path><path d="M21.9274 89.0775V83.1429H23.795V83.8643C24.3672 83.2902 25.0284 83.0032 25.7785 83.0032C26.8225 83.0032 27.3445 83.554 27.3445 84.6556V89.0775H25.4769V85.2374C25.4769 84.7952 25.2913 84.5741 24.9201 84.5741C24.5722 84.5741 24.1971 84.7487 23.795 85.0978V89.0775H21.9274Z" fill="white"></path><path d="M30.4549 88.9146C30.2461 89.1163 29.9793 89.2171 29.6545 89.2171C29.3297 89.2171 29.0629 89.1163 28.8541 88.9146C28.6454 88.7051 28.541 88.4491 28.541 88.1466C28.541 87.844 28.6454 87.5919 28.8541 87.3902C29.0629 87.1807 29.3297 87.076 29.6545 87.076C29.9793 87.076 30.2461 87.1807 30.4549 87.3902C30.6637 87.5919 30.7681 87.844 30.7681 88.1466C30.7681 88.4491 30.6637 88.7051 30.4549 88.9146Z" fill="white"></path><path d="M36.3218 83.4105L35.9738 84.8418C35.5485 84.5703 35.1812 84.4345 34.8718 84.4345C34.4929 84.4345 34.1913 84.578 33.9671 84.8651C33.7428 85.1443 33.6307 85.571 33.6307 86.1451C33.6307 86.7191 33.7428 87.1458 33.9671 87.4251C34.1991 87.7044 34.5122 87.844 34.9066 87.844C35.2933 87.844 35.6606 87.716 36.0086 87.46L36.3682 88.7749C35.8578 89.0697 35.2662 89.2171 34.5934 89.2171C33.7273 89.2171 33.0391 88.9572 32.5287 88.4375C32.0183 87.9177 31.7631 87.1691 31.7631 86.1916C31.7631 85.1831 32.0338 84.3996 32.5751 83.841C33.1242 83.2825 33.8472 83.0032 34.7442 83.0032C35.3397 83.0032 35.8655 83.139 36.3218 83.4105Z" fill="white"></path><path d="M42.7737 86.0869C42.7737 87.1109 42.4992 87.8905 41.9502 88.4258C41.4011 88.9533 40.7013 89.2171 39.8506 89.2171C39.0077 89.2171 38.3156 88.9572 37.7743 88.4375C37.2407 87.9099 36.9739 87.1419 36.9739 86.1334C36.9739 85.1094 37.2484 84.3337 37.7975 83.8061C38.3465 83.2709 39.0464 83.0032 39.897 83.0032C40.7399 83.0032 41.4282 83.267 41.9618 83.7945C42.5031 84.3143 42.7737 85.0784 42.7737 86.0869ZM40.6162 87.4833C40.8095 87.1962 40.9062 86.7463 40.9062 86.1334C40.9062 85.5206 40.8095 85.0745 40.6162 84.7952C40.4306 84.5082 40.1831 84.3647 39.8738 84.3647C39.5645 84.3647 39.3132 84.5082 39.1198 84.7952C38.9342 85.0745 38.8414 85.5206 38.8414 86.1334C38.8414 86.7463 38.9342 87.1962 39.1198 87.4833C39.3132 87.7625 39.5645 87.9022 39.8738 87.9022C40.1831 87.9022 40.4306 87.7625 40.6162 87.4833Z" fill="white"></path><path d="M47.5243 89.0775C47.447 88.9766 47.3929 88.7284 47.3619 88.3327C46.8825 88.9223 46.3102 89.2171 45.6452 89.2171C44.9879 89.2171 44.462 88.9572 44.0676 88.4375C43.6732 87.9099 43.4761 87.173 43.4761 86.2265C43.4761 85.218 43.6964 84.4306 44.1372 83.8643C44.5858 83.2902 45.1464 83.0032 45.8192 83.0032C46.4378 83.0032 46.9482 83.2709 47.3503 83.8061V80.6992H49.2179V87.7276C49.2179 88.4569 49.2565 88.9068 49.3339 89.0775H47.5243ZM46.3528 87.7858C46.6776 87.7858 47.0101 87.619 47.3503 87.2854V85.0163C47.0101 84.6983 46.6853 84.5392 46.376 84.5392C46.0589 84.5392 45.8076 84.675 45.622 84.9465C45.4364 85.2103 45.3436 85.6214 45.3436 86.18C45.3436 86.723 45.4325 87.1264 45.6104 87.3902C45.796 87.6539 46.0434 87.7858 46.3528 87.7858Z" fill="white"></path><path d="M53.2188 84.2832C52.9249 84.2832 52.6852 84.3918 52.4996 84.6091C52.314 84.8263 52.2057 85.1482 52.1748 85.5749H54.1235C54.1235 84.7138 53.8219 84.2832 53.2188 84.2832ZM55.7939 86.6571H52.198C52.3217 87.4794 52.7857 87.8905 53.59 87.8905C54.0617 87.8905 54.6417 87.7432 55.3299 87.4484L55.6779 88.7167C54.9587 89.0503 54.1738 89.2171 53.3232 89.2171C52.372 89.2171 51.6258 88.9611 51.0844 88.4491C50.5508 87.9371 50.2841 87.1885 50.2841 86.2033C50.2841 85.187 50.5586 84.3996 51.1076 83.841C51.6644 83.2825 52.3836 83.0032 53.2652 83.0032C54.0694 83.0032 54.6997 83.2515 55.1559 83.7479C55.6122 84.2367 55.8403 84.9659 55.8403 85.9356C55.8403 86.2071 55.8248 86.4476 55.7939 86.6571Z" fill="white"></path><path d="M58.797 88.9146C58.5882 89.1163 58.3214 89.2171 57.9966 89.2171C57.6719 89.2171 57.4051 89.1163 57.1963 88.9146C56.9875 88.7051 56.8831 88.4491 56.8831 88.1466C56.8831 87.844 56.9875 87.5919 57.1963 87.3902C57.4051 87.1807 57.6719 87.076 57.9966 87.076C58.3214 87.076 58.5882 87.1807 58.797 87.3902C59.0058 87.5919 59.1102 87.844 59.1102 88.1466C59.1102 88.4491 59.0058 88.7051 58.797 88.9146Z" fill="white"></path><path d="M59.9313 84.516V83.1429H60.778V81.1646H62.6456V83.1429H63.7475V84.516H62.6456V87.1109C62.6456 87.3514 62.6804 87.5182 62.75 87.6113C62.8273 87.6966 62.9588 87.7393 63.1444 87.7393C63.3145 87.7393 63.5155 87.7082 63.7475 87.6462V89.0426C63.3609 89.1124 62.9704 89.1473 62.576 89.1473C61.9032 89.1473 61.4353 89.0232 61.1724 88.7749C60.9095 88.5267 60.778 88.0651 60.778 87.3902V84.516H59.9313Z" fill="white"></path><path d="M67.3445 84.2832C67.0507 84.2832 66.8109 84.3918 66.6253 84.6091C66.4397 84.8263 66.3315 85.1482 66.3006 85.5749H68.2493C68.2493 84.7138 67.9477 84.2832 67.3445 84.2832ZM69.9196 86.6571H66.3238C66.4475 87.4794 66.9115 87.8905 67.7157 87.8905C68.1874 87.8905 68.7674 87.7432 69.4557 87.4484L69.8036 88.7167C69.0845 89.0503 68.2996 89.2171 67.4489 89.2171C66.4977 89.2171 65.7515 88.9611 65.2102 88.4491C64.6766 87.9371 64.4098 87.1885 64.4098 86.2033C64.4098 85.187 64.6843 84.3996 65.2334 83.841C65.7902 83.2825 66.5093 83.0032 67.3909 83.0032C68.1952 83.0032 68.8254 83.2515 69.2817 83.7479C69.7379 84.2367 69.966 84.9659 69.966 85.9356C69.966 86.2071 69.9506 86.4476 69.9196 86.6571Z" fill="white"></path><path d="M73.178 84.4345C72.7217 84.4345 72.1301 84.5897 71.4032 84.9L71.0552 83.5269C71.9059 83.1778 72.7488 83.0032 73.584 83.0032C74.365 83.0032 74.9566 83.17 75.3587 83.5036C75.7686 83.8372 75.9735 84.4035 75.9735 85.2025V87.7276C75.9735 88.4569 76.0121 88.9068 76.0895 89.0775H74.3263C74.249 88.9611 74.1987 88.7516 74.1755 88.4491C73.7115 88.9611 73.1548 89.2171 72.5052 89.2171C71.9871 89.2171 71.5618 89.0542 71.2292 88.7284C70.9044 88.4026 70.742 87.9448 70.742 87.3553C70.742 86.0287 71.6043 85.3654 73.3288 85.3654C73.6226 85.3654 73.8971 85.3809 74.1523 85.412V85.3422C74.1523 85.0163 74.0711 84.7836 73.9087 84.644C73.7541 84.5043 73.5105 84.4345 73.178 84.4345ZM73.1896 87.8789C73.4834 87.8789 73.8044 87.747 74.1523 87.4833V86.4709C73.959 86.4321 73.7773 86.4127 73.6071 86.4127C73.2282 86.4127 72.9576 86.4748 72.7952 86.5989C72.6405 86.723 72.5632 86.9131 72.5632 87.1691C72.5632 87.6423 72.772 87.8789 73.1896 87.8789Z" fill="white"></path><path d="M77.2523 89.0775V83.1429H79.1199V83.8527C79.6844 83.2864 80.3262 83.0032 81.0454 83.0032C81.7878 83.0032 82.2557 83.2941 82.449 83.876C83.0676 83.2941 83.7443 83.0032 84.4789 83.0032C85.4842 83.0032 85.9869 83.554 85.9869 84.6556V89.0775H84.1193V85.2374C84.1193 84.7952 83.9492 84.5741 83.609 84.5741C83.2764 84.5741 82.9246 84.7409 82.5534 85.0745V89.0775H80.6858V85.2374C80.6858 84.9892 80.6433 84.8185 80.5582 84.7254C80.4732 84.6246 80.3456 84.5741 80.1755 84.5741C79.8352 84.5741 79.4833 84.7448 79.1199 85.0861V89.0775H77.2523Z" fill="white"></path></svg> 